<?xml version="1.0" encoding="utf-8"?>
<!-- Generator: Adobe Illustrator 26.5.0, SVG Export Plug-In . SVG Version: 6.00 Build 0)  -->
<svg version="1.1" id="Capa_1" xmlns="http://www.w3.org/2000/svg" xmlns:xlink="http://www.w3.org/1999/xlink" x="0px" y="0px"
	 viewBox="0 0 400.8 80.6" style="enable-background:new 0 0 400.8 80.6;" xml:space="preserve">
<style type="text/css">
	.st0{fill:#CE0E2D;}
	.st1{fill:#FFCD00;}
	.st2{fill:#575756;}
</style>
<g>
	<g>
		<polygon class="st0" points="62.8,0 62.8,15.9 48.3,15.9 48.3,79.8 31.1,79.8 31.1,15.9 16.5,15.9 16.5,0 		"/>
		<path class="st0" d="M79.8,54.4l-2.4,0.8c-3.9,1.2-7.9,2-12,2.3L61,57.6l15.8,22.2H98L79.8,54.4z"/>
		<polygon class="st1" points="27.8,69.1 22.6,68.8 21.8,64.2 19.3,68.6 13.9,68.3 17.6,71.5 15.1,76 19.9,73.5 24.8,76.6 23.3,72 
					"/>
		<polygon class="st1" points="13.3,53.3 8.5,53 7.7,48.8 5.4,52.8 0.3,52.5 3.8,55.4 0.8,59.5 6,57.2 9.8,60 9.1,55.8 		"/>
		<polygon class="st1" points="11.6,36.1 7.3,35.8 6.6,32.3 4.5,35.6 0,35.4 3.1,37.9 0.4,41.3 5.1,39.4 8.5,41.8 7.9,38.3 		"/>
		<polygon class="st1" points="19.7,22.7 15.9,22.5 15.3,19.7 13.5,22.4 9.5,22.2 12.3,24.1 9.9,26.8 14,25.4 17,27.2 16.4,24.5 		
			"/>
		<path class="st1" d="M93.4,16.5c-1.5-3.4-3.6-6.3-6.3-8.7C84.3,5.4,81,3.5,77,2.1c-6.4-2.1-12.5-2-12.5-2c0,5.3,0,10.5,0,15.9
			c2.8,0.3,5.8,1,8.5,3.1s4,5.1,4,9v0.2c0,3.4-1.3,6.3-3.8,8.6c-2.6,2.3-6.1,3.5-10.8,3.5H49.9c0,5.2,0,10.4,0,15.6h11.9
			c4.7,0,9.1-0.6,13.2-1.8c4.1-1.2,7.7-2.9,10.8-5.3s5.5-5.3,7.2-8.8c1.8-3.5,2.6-7.6,2.6-12.2v-0.2C95.6,23.6,94.9,19.9,93.4,16.5z
			"/>
	</g>
	<path class="st2" d="M111.3,5h7.4c1.1,0,2.1,0.2,2.9,0.5c0.9,0.3,1.6,0.7,2.2,1.3c0.6,0.6,1.1,1.2,1.4,2c0.3,0.8,0.5,1.6,0.5,2.5
		v0.1c0,1.1-0.2,2-0.6,2.8c-0.4,0.8-0.9,1.5-1.6,2c-0.7,0.5-1.4,0.9-2.3,1.2c-0.9,0.3-1.8,0.4-2.9,0.4h-3v5.4h-4L111.3,5L111.3,5z
		 M118.4,14.1c1,0,1.8-0.3,2.3-0.8c0.6-0.5,0.8-1.2,0.8-2l0,0c0-0.9-0.3-1.6-0.9-2c-0.6-0.5-1.4-0.7-2.4-0.7h-3.1v5.5H118.4z"/>
	<path class="st2" d="M128.3,4.2h3.9v18.9h-3.9V4.2z"/>
	<path class="st2" d="M139.9,23.3c-0.7,0-1.3-0.1-1.8-0.3c-0.6-0.2-1.1-0.5-1.5-0.8c-0.4-0.4-0.8-0.8-1-1.3
		c-0.2-0.5-0.4-1.1-0.4-1.8V19c0-0.8,0.1-1.4,0.4-2s0.7-1,1.2-1.4s1.1-0.6,1.8-0.8c0.7-0.2,1.4-0.3,2.3-0.3c0.7,0,1.3,0.1,1.8,0.2
		s1,0.2,1.5,0.4v-0.2c0-0.8-0.3-1.5-0.7-1.9c-0.5-0.4-1.2-0.6-2.2-0.6c-0.8,0-1.4,0.1-2,0.2s-1.2,0.3-1.8,0.6l-1-3
		c0.8-0.3,1.6-0.6,2.4-0.8c0.8-0.2,1.8-0.3,3-0.3c1.1,0,2,0.1,2.8,0.4c0.8,0.3,1.4,0.7,1.9,1.2s0.9,1.2,1.1,1.9
		c0.2,0.7,0.4,1.6,0.4,2.5v8h-3.8v-1.5c-0.5,0.5-1.1,1-1.7,1.3C141.7,23.2,140.9,23.3,139.9,23.3z M141.1,20.6
		c0.9,0,1.7-0.2,2.2-0.7c0.6-0.4,0.8-1,0.8-1.8v-0.7c-0.3-0.2-0.7-0.3-1.2-0.4c-0.4-0.1-0.9-0.1-1.4-0.1c-0.8,0-1.5,0.2-2,0.5
		s-0.7,0.8-0.7,1.4v0.1c0,0.5,0.2,0.9,0.6,1.2C139.9,20.5,140.5,20.6,141.1,20.6z"/>
	<path class="st2" d="M151.3,9.2h3.9v2c0.2-0.3,0.5-0.6,0.7-0.8c0.3-0.3,0.6-0.5,0.9-0.7s0.7-0.4,1.1-0.5s0.8-0.2,1.3-0.2
		c1.5,0,2.7,0.5,3.5,1.4s1.2,2.2,1.2,3.8v9H160v-7.7c0-0.9-0.2-1.6-0.6-2.1s-1-0.7-1.8-0.7s-1.4,0.2-1.8,0.7s-0.7,1.2-0.7,2.1v7.7
		h-3.9L151.3,9.2L151.3,9.2z"/>
	<path class="st2" d="M180.8,23.3c-0.8,0-1.6-0.2-2.4-0.5s-1.4-0.8-2-1.4s-1.1-1.4-1.4-2.2c-0.4-0.9-0.5-1.9-0.5-3.1V16
		c0-1.2,0.2-2.2,0.5-3.1c0.4-0.9,0.8-1.6,1.4-2.2s1.2-1.1,2-1.4s1.6-0.5,2.4-0.5c1.1,0,1.9,0.2,2.6,0.6s1.3,0.9,1.7,1.4V4h3.9v18.9
		h-3.9v-2c-0.5,0.7-1.1,1.2-1.7,1.6C182.7,23.1,181.9,23.3,180.8,23.3z M181.8,20c0.5,0,0.9-0.1,1.3-0.3c0.4-0.2,0.8-0.4,1.1-0.8
		c0.3-0.3,0.5-0.7,0.7-1.2s0.3-1,0.3-1.6V16c0-0.6-0.1-1.1-0.3-1.6c-0.2-0.5-0.4-0.9-0.7-1.2c-0.3-0.3-0.7-0.6-1.1-0.8
		c-0.4-0.2-0.8-0.3-1.3-0.3s-0.9,0.1-1.3,0.3c-0.4,0.2-0.8,0.4-1.1,0.8c-0.3,0.3-0.6,0.7-0.7,1.2c-0.2,0.5-0.3,1-0.3,1.6v0.1
		c0,0.6,0.1,1.1,0.3,1.6c0.2,0.5,0.4,0.9,0.7,1.2c0.3,0.3,0.7,0.6,1.1,0.8S181.4,20,181.8,20z"/>
	<path class="st2" d="M199.1,23.4c-1,0-2-0.2-2.9-0.5s-1.7-0.8-2.3-1.5c-0.6-0.6-1.2-1.4-1.5-2.3c-0.4-0.9-0.5-1.8-0.5-2.9v-0.1
		c0-1,0.2-1.9,0.5-2.8s0.8-1.6,1.4-2.3c0.6-0.7,1.3-1.2,2.2-1.6c0.8-0.4,1.8-0.6,2.8-0.6c1.2,0,2.2,0.2,3,0.6s1.5,1,2.1,1.7
		s1,1.5,1.2,2.4c0.3,0.9,0.4,1.8,0.4,2.8c0,0.2,0,0.3,0,0.5s0,0.4,0,0.5h-9.6c0.2,0.9,0.6,1.6,1.2,2c0.6,0.5,1.3,0.7,2.2,0.7
		c0.7,0,1.2-0.1,1.8-0.3c0.5-0.2,1.1-0.6,1.6-1.1l2.2,2c-0.7,0.8-1.4,1.4-2.4,1.9C201.5,23.1,200.4,23.4,199.1,23.4z M201.7,15
		c-0.1-0.9-0.4-1.6-0.9-2.1s-1.2-0.8-2-0.8s-1.5,0.3-2,0.8s-0.8,1.2-1,2.1H201.7z"/>
	<path class="st2" d="M216.6,5h8.3c2.3,0,4,0.6,5.3,1.8c1,1,1.6,2.4,1.6,4.1V11c0,1.5-0.4,2.7-1.1,3.6s-1.7,1.6-2.8,2l4.4,6.5h-4.7
		l-3.9-5.8h-0.1h-3.1v5.8h-4V5H216.6z M224.6,13.8c1,0,1.7-0.2,2.3-0.7c0.5-0.5,0.8-1.1,0.8-1.9v-0.1c0-0.9-0.3-1.5-0.8-1.9
		c-0.6-0.4-1.3-0.6-2.3-0.6h-4v5.2H224.6z"/>
	<path class="st2" d="M241.4,23.4c-1,0-2-0.2-2.9-0.5s-1.7-0.8-2.3-1.5c-0.6-0.6-1.2-1.4-1.5-2.3c-0.4-0.9-0.5-1.8-0.5-2.9v-0.1
		c0-1,0.2-1.9,0.5-2.8s0.8-1.6,1.4-2.3c0.6-0.7,1.3-1.2,2.2-1.6c0.8-0.4,1.8-0.6,2.8-0.6c1.2,0,2.2,0.2,3,0.6s1.5,1,2.1,1.7
		s1,1.5,1.2,2.4c0.3,0.9,0.4,1.8,0.4,2.8c0,0.2,0,0.3,0,0.5s0,0.4,0,0.5h-9.6c0.2,0.9,0.6,1.6,1.2,2c0.6,0.5,1.3,0.7,2.2,0.7
		c0.7,0,1.2-0.1,1.8-0.3c0.5-0.2,1.1-0.6,1.6-1.1l2.2,2c-0.7,0.8-1.4,1.4-2.4,1.9C243.8,23.1,242.7,23.4,241.4,23.4z M244,15
		c-0.1-0.9-0.4-1.6-0.9-2.1s-1.2-0.8-2-0.8s-1.5,0.3-2,0.8s-0.8,1.2-1,2.1H244z"/>
	<path class="st2" d="M257.3,23.4c-1,0-2-0.2-2.9-0.6s-1.7-0.9-2.3-1.5c-0.6-0.6-1.1-1.4-1.5-2.3s-0.5-1.8-0.5-2.8v-0.1
		c0-1,0.2-1.9,0.5-2.8c0.4-0.9,0.9-1.6,1.5-2.3c0.6-0.7,1.4-1.2,2.3-1.6s1.9-0.6,2.9-0.6c1.3,0,2.4,0.2,3.3,0.6s1.6,1,2.3,1.7
		l-2.4,2.6c-0.4-0.5-0.9-0.8-1.4-1.1c-0.5-0.3-1.1-0.4-1.8-0.4c-0.5,0-1,0.1-1.4,0.3c-0.4,0.2-0.8,0.5-1.1,0.8
		c-0.3,0.3-0.5,0.7-0.7,1.2s-0.2,0.9-0.2,1.5v0.1c0,0.5,0.1,1,0.2,1.5s0.4,0.9,0.7,1.2c0.3,0.3,0.7,0.6,1.1,0.8
		c0.4,0.2,0.9,0.3,1.4,0.3c0.7,0,1.2-0.1,1.7-0.4s1-0.6,1.5-1.1l2.3,2.3c-0.7,0.7-1.4,1.3-2.3,1.8C259.8,23.1,258.6,23.4,257.3,23.4
		z"/>
	<path class="st2" d="M270.1,23.3c-1.5,0-2.7-0.5-3.5-1.4s-1.2-2.2-1.2-3.8v-9h3.9v7.7c0,0.9,0.2,1.6,0.6,2.1s1,0.7,1.8,0.7
		s1.4-0.2,1.8-0.7s0.7-1.2,0.7-2.1V9.1h3.9V23h-3.9v-2c-0.2,0.3-0.5,0.6-0.7,0.8c-0.3,0.3-0.6,0.5-0.9,0.7s-0.7,0.4-1.1,0.5
		C271,23.3,270.6,23.3,270.1,23.3z"/>
	<path class="st2" d="M281.6,9.2h3.9v2c0.5-0.7,1.1-1.2,1.7-1.6c0.7-0.4,1.5-0.6,2.6-0.6c0.8,0,1.6,0.2,2.4,0.5s1.4,0.8,2,1.4
		s1.1,1.4,1.4,2.2c0.4,0.9,0.5,1.9,0.5,3.1v0.1c0,1.2-0.2,2.2-0.5,3.1c-0.4,0.9-0.8,1.6-1.4,2.2s-1.2,1.1-2,1.4s-1.6,0.5-2.4,0.5
		c-1.1,0-1.9-0.2-2.6-0.6s-1.3-0.9-1.7-1.4v5.9h-3.9V9.2z M288.8,20c0.5,0,0.9-0.1,1.3-0.3c0.4-0.2,0.8-0.4,1.1-0.8
		c0.3-0.3,0.6-0.7,0.7-1.2c0.2-0.5,0.3-1,0.3-1.6V16c0-0.6-0.1-1.1-0.3-1.6c-0.2-0.5-0.4-0.9-0.7-1.2c-0.3-0.3-0.7-0.6-1.1-0.8
		c-0.4-0.2-0.8-0.3-1.3-0.3s-0.9,0.1-1.3,0.3c-0.4,0.2-0.8,0.4-1.1,0.8c-0.3,0.3-0.5,0.7-0.7,1.2s-0.3,1-0.3,1.6v0.1
		c0,0.6,0.1,1.1,0.3,1.6c0.2,0.5,0.4,0.9,0.7,1.2c0.3,0.3,0.7,0.6,1.1,0.8S288.4,20,288.8,20z"/>
	<path class="st2" d="M305.6,23.4c-1,0-2-0.2-2.9-0.5s-1.7-0.8-2.3-1.5c-0.6-0.6-1.1-1.4-1.5-2.3s-0.5-1.8-0.5-2.9v-0.1
		c0-1,0.2-1.9,0.5-2.8s0.8-1.6,1.4-2.3c0.6-0.7,1.3-1.2,2.2-1.6c0.8-0.4,1.8-0.6,2.8-0.6c1.2,0,2.2,0.2,3,0.6s1.5,1,2.1,1.7
		s1,1.5,1.2,2.4c0.3,0.9,0.4,1.8,0.4,2.8c0,0.2,0,0.3,0,0.5s0,0.4,0,0.5h-9.6c0.2,0.9,0.6,1.6,1.2,2c0.6,0.5,1.3,0.7,2.2,0.7
		c0.7,0,1.2-0.1,1.8-0.3c0.5-0.2,1.1-0.6,1.6-1.1l2.2,2c-0.7,0.8-1.4,1.4-2.4,1.9C307.9,23.1,306.8,23.4,305.6,23.4z M308.1,15
		c-0.1-0.9-0.4-1.6-0.9-2.1s-1.2-0.8-2-0.8s-1.5,0.3-2,0.8s-0.8,1.2-1,2.1H308.1z"/>
	<path class="st2" d="M314.9,9.2h3.9V12c0.4-0.9,0.9-1.7,1.6-2.3c0.7-0.6,1.6-0.8,2.8-0.8V13H323c-1.3,0-2.3,0.4-3.1,1.2
		c-0.7,0.8-1.1,2-1.1,3.7V23h-3.9L314.9,9.2L314.9,9.2z"/>
	<path class="st2" d="M329.6,23.3c-0.7,0-1.3-0.1-1.8-0.3c-0.6-0.2-1.1-0.5-1.5-0.8c-0.4-0.4-0.8-0.8-1-1.3
		c-0.3-0.5-0.4-1.1-0.4-1.8V19c0-0.8,0.1-1.4,0.4-2s0.7-1,1.1-1.4c0.5-0.4,1.1-0.6,1.8-0.8c0.7-0.2,1.4-0.3,2.3-0.3
		c0.7,0,1.3,0.1,1.8,0.2s1,0.2,1.5,0.4v-0.2c0-0.8-0.3-1.5-0.8-1.9s-1.2-0.6-2.2-0.6c-0.8,0-1.4,0.1-2,0.2s-1.2,0.3-1.8,0.6l-1-3
		c0.8-0.3,1.6-0.6,2.4-0.8c0.8-0.2,1.8-0.3,3-0.3c1.1,0,2,0.1,2.8,0.4s1.4,0.7,1.9,1.2s0.9,1.2,1.1,1.9c0.2,0.7,0.4,1.6,0.4,2.5v8
		h-3.8v-1.5c-0.5,0.5-1.1,1-1.7,1.3C331.4,23.2,330.6,23.3,329.6,23.3z M330.8,20.6c0.9,0,1.7-0.2,2.2-0.7c0.6-0.4,0.8-1,0.8-1.8
		v-0.7c-0.3-0.2-0.7-0.3-1.2-0.4c-0.4-0.1-0.9-0.1-1.4-0.1c-0.8,0-1.5,0.2-2,0.5s-0.7,0.8-0.7,1.4v0.1c0,0.5,0.2,0.9,0.6,1.2
		C329.6,20.5,330.2,20.6,330.8,20.6z"/>
	<path class="st2" d="M347.5,23.4c-1,0-2-0.2-2.9-0.6s-1.7-0.9-2.3-1.5c-0.6-0.6-1.1-1.4-1.5-2.3s-0.5-1.8-0.5-2.8v-0.1
		c0-1,0.2-1.9,0.5-2.8c0.4-0.9,0.9-1.6,1.5-2.3c0.6-0.7,1.4-1.2,2.3-1.6s1.9-0.6,2.9-0.6c1.3,0,2.4,0.2,3.3,0.6s1.6,1,2.3,1.7
		l-2.4,2.6c-0.4-0.5-0.9-0.8-1.4-1.1c-0.5-0.3-1.1-0.4-1.8-0.4c-0.5,0-1,0.1-1.4,0.3c-0.4,0.2-0.8,0.5-1.1,0.8
		c-0.3,0.3-0.5,0.7-0.7,1.2s-0.2,0.9-0.2,1.5v0.1c0,0.5,0.1,1,0.2,1.5c0.2,0.5,0.4,0.9,0.7,1.2c0.3,0.3,0.7,0.6,1.1,0.8
		c0.4,0.2,0.9,0.3,1.4,0.3c0.7,0,1.2-0.1,1.7-0.4s1-0.6,1.5-1.1l2.3,2.3c-0.7,0.7-1.4,1.3-2.3,1.8C350,23.1,348.9,23.4,347.5,23.4z"
		/>
	<path class="st2" d="M355.8,4.2h4.1v3.5h-4.1V4.2z M355.9,9.2h3.9v13.9h-3.9V9.2z"/>
	<path class="st2" d="M370.3,23.4c-1.1,0-2.1-0.2-3-0.6s-1.7-0.9-2.4-1.5c-0.7-0.6-1.2-1.4-1.6-2.3s-0.6-1.8-0.6-2.8v-0.1
		c0-1,0.2-1.9,0.6-2.8s0.9-1.6,1.6-2.3c0.7-0.7,1.5-1.2,2.4-1.6s1.9-0.6,3-0.6s2.1,0.2,3,0.6s1.7,0.9,2.4,1.5
		c0.7,0.6,1.2,1.4,1.6,2.3s0.6,1.8,0.6,2.8v0.1c0,1-0.2,1.9-0.6,2.8s-0.9,1.6-1.6,2.3c-0.7,0.7-1.5,1.2-2.4,1.6
		S371.4,23.4,370.3,23.4z M370.4,20c0.6,0,1.1-0.1,1.5-0.3c0.4-0.2,0.8-0.5,1.1-0.8c0.3-0.3,0.5-0.7,0.7-1.2s0.2-0.9,0.2-1.5v-0.1
		c0-0.5-0.1-1-0.3-1.5s-0.4-0.9-0.7-1.2c-0.3-0.4-0.7-0.6-1.2-0.8c-0.4-0.2-0.9-0.3-1.5-0.3s-1.1,0.1-1.5,0.3
		c-0.4,0.2-0.8,0.5-1.1,0.8c-0.3,0.3-0.5,0.7-0.7,1.2s-0.2,0.9-0.2,1.5v0.1c0,0.5,0.1,1,0.3,1.5c0.2,0.5,0.4,0.9,0.7,1.2
		c0.3,0.4,0.7,0.6,1.2,0.8C369.3,19.9,369.8,20,370.4,20z M371.8,3.1l3.4,1.5l-3.3,3.1h-3L371.8,3.1z"/>
	<path class="st2" d="M380.7,9.2h3.9v2c0.2-0.3,0.5-0.6,0.7-0.8c0.3-0.3,0.6-0.5,0.9-0.7s0.7-0.4,1.1-0.5s0.8-0.2,1.3-0.2
		c1.5,0,2.7,0.5,3.5,1.4s1.2,2.2,1.2,3.8v9h-3.9v-7.7c0-0.9-0.2-1.6-0.6-2.1s-1-0.7-1.8-0.7s-1.4,0.2-1.8,0.7s-0.7,1.2-0.7,2.1v7.7
		h-3.9L380.7,9.2L380.7,9.2z"/>
	<path class="st2" d="M395.7,25.6c1.8-0.2,2.7-1,2.5-2.6h-1.6v-4.1h4.2v3.5c0,1.7-0.4,2.9-1.2,3.7c-0.8,0.8-2,1.1-3.5,1.2
		L395.7,25.6z"/>
	<path class="st2" d="M115.3,35.8h-5.5v-3.7h15v3.7h-5.5v14.4h-4V35.8z"/>
	<path class="st2" d="M127.4,36.4h3.9v2.8c0.4-0.9,0.9-1.7,1.6-2.3c0.7-0.6,1.6-0.8,2.8-0.8v4.1h-0.2c-1.3,0-2.3,0.4-3.1,1.2
		c-0.7,0.8-1.1,2-1.1,3.7v5.1h-3.9V36.4z"/>
	<path class="st2" d="M142.1,50.5c-0.7,0-1.3-0.1-1.8-0.3c-0.6-0.2-1.1-0.5-1.5-0.8c-0.4-0.4-0.8-0.8-1-1.3
		c-0.2-0.5-0.4-1.1-0.4-1.8v-0.1c0-0.8,0.1-1.4,0.4-2c0.3-0.6,0.7-1,1.2-1.4s1.1-0.6,1.8-0.8c0.7-0.2,1.4-0.3,2.3-0.3
		c0.7,0,1.3,0.1,1.8,0.2s1,0.2,1.5,0.4v-0.2c0-0.8-0.3-1.5-0.7-1.9c-0.5-0.4-1.2-0.6-2.2-0.6c-0.8,0-1.4,0.1-2,0.2s-1.2,0.3-1.8,0.6
		l-1-3c0.8-0.3,1.6-0.6,2.4-0.8c0.8-0.2,1.8-0.3,3-0.3c1.1,0,2,0.1,2.8,0.4c0.8,0.3,1.4,0.7,1.9,1.2s0.9,1.2,1.1,1.9
		c0.2,0.7,0.4,1.6,0.4,2.5v8h-3.8v-1.5c-0.5,0.5-1.1,1-1.7,1.3C143.9,50.3,143.1,50.5,142.1,50.5z M143.3,47.8
		c0.9,0,1.7-0.2,2.2-0.7c0.6-0.4,0.8-1,0.8-1.8v-0.7c-0.3-0.2-0.7-0.3-1.2-0.4c-0.4-0.1-0.9-0.1-1.4-0.1c-0.8,0-1.5,0.2-2,0.5
		S141,45.4,141,46v0.1c0,0.5,0.2,0.9,0.6,1.2C142.2,47.6,142.7,47.8,143.3,47.8z"/>
	<path class="st2" d="M153.5,36.4h3.9v2c0.2-0.3,0.5-0.6,0.7-0.8c0.3-0.3,0.6-0.5,0.9-0.7s0.7-0.4,1.1-0.5s0.8-0.2,1.3-0.2
		c1.5,0,2.7,0.5,3.5,1.4s1.2,2.2,1.2,3.8v9h-3.9v-7.7c0-0.9-0.2-1.6-0.6-2.1s-1-0.7-1.8-0.7s-1.4,0.2-1.8,0.7s-0.7,1.2-0.7,2.1v7.7
		h-3.9L153.5,36.4L153.5,36.4z"/>
	<path class="st2" d="M174.5,50.5c-1,0-2-0.2-3-0.5s-2-0.9-2.9-1.6l1.7-2.6c0.8,0.6,1.5,1,2.3,1.2c0.7,0.3,1.5,0.4,2.1,0.4
		s1-0.1,1.3-0.3c0.3-0.2,0.4-0.4,0.4-0.8v-0.1c0-0.2-0.1-0.4-0.2-0.5c-0.2-0.2-0.4-0.3-0.6-0.4c-0.3-0.1-0.6-0.2-0.9-0.3
		c-0.3-0.1-0.7-0.2-1.1-0.3c-0.5-0.1-1-0.3-1.5-0.5s-0.9-0.5-1.3-0.8s-0.7-0.7-1-1.2c-0.2-0.5-0.4-1-0.4-1.7v-0.1
		c0-0.7,0.1-1.3,0.4-1.9c0.3-0.5,0.6-1,1.1-1.4s1-0.7,1.6-0.9c0.6-0.2,1.3-0.3,2-0.3c0.9,0,1.8,0.1,2.7,0.4c0.9,0.3,1.7,0.7,2.5,1.2
		l-1.5,2.7c-0.7-0.4-1.4-0.7-2-0.9c-0.7-0.2-1.2-0.3-1.7-0.3s-0.8,0.1-1.1,0.3c-0.2,0.2-0.4,0.4-0.4,0.7v0.1c0,0.2,0.1,0.4,0.2,0.5
		c0.2,0.1,0.4,0.3,0.6,0.4c0.3,0.1,0.6,0.3,0.9,0.4s0.7,0.2,1.1,0.4c0.5,0.2,1,0.3,1.5,0.6c0.5,0.2,0.9,0.5,1.3,0.8s0.7,0.7,1,1.1
		s0.4,1,0.4,1.6V46c0,0.8-0.1,1.4-0.4,2s-0.6,1-1.1,1.4s-1,0.6-1.7,0.8C175.9,50.4,175.2,50.5,174.5,50.5z"/>
	<path class="st2" d="M183.3,39.7h-1.6v-3.2h1.6v-0.9c0-1.5,0.4-2.6,1.1-3.4c0.7-0.7,1.8-1.1,3.2-1.1c0.6,0,1.2,0,1.6,0.1
		s0.8,0.2,1.2,0.3v3.3c-0.3-0.1-0.6-0.2-0.9-0.2c-0.3-0.1-0.6-0.1-0.9-0.1c-0.9,0-1.4,0.5-1.4,1.5v0.5h3.2v3.2h-3.1v10.5h-3.9V39.7
		H183.3z"/>
	<path class="st2" d="M199.3,50.5c-1.1,0-2.1-0.2-3-0.6s-1.7-0.9-2.4-1.5c-0.7-0.6-1.2-1.4-1.6-2.3s-0.6-1.8-0.6-2.8v0
		c0-1,0.2-1.9,0.6-2.8s0.9-1.6,1.6-2.3c0.7-0.7,1.5-1.2,2.4-1.6s1.9-0.6,3-0.6s2.1,0.2,3,0.6s1.7,0.9,2.4,1.5
		c0.7,0.6,1.2,1.4,1.6,2.3s0.6,1.8,0.6,2.8v0.1c0,1-0.2,1.9-0.6,2.8s-0.9,1.6-1.6,2.3c-0.7,0.7-1.5,1.2-2.4,1.6
		C201.4,50.3,200.4,50.5,199.3,50.5z M199.3,47.1c0.6,0,1.1-0.1,1.5-0.3c0.4-0.2,0.8-0.5,1.1-0.8c0.3-0.3,0.5-0.7,0.7-1.2
		s0.2-0.9,0.2-1.5l0,0c0-0.5-0.1-1-0.3-1.5c-0.2-0.5-0.4-0.9-0.7-1.2c-0.3-0.4-0.7-0.6-1.2-0.8c-0.4-0.2-0.9-0.3-1.5-0.3
		s-1.1,0.1-1.5,0.3c-0.4,0.2-0.8,0.5-1.1,0.8c-0.3,0.3-0.5,0.7-0.7,1.2s-0.2,0.9-0.2,1.5v0.1c0,0.5,0.1,1,0.3,1.5
		c0.2,0.5,0.4,0.9,0.7,1.2c0.3,0.4,0.7,0.6,1.2,0.8C198.3,47,198.8,47.1,199.3,47.1z"/>
	<path class="st2" d="M209.6,36.4h3.9v2.8c0.4-0.9,0.9-1.7,1.6-2.3c0.7-0.6,1.6-0.8,2.8-0.8v4.1h-0.2c-1.3,0-2.3,0.4-3.1,1.2
		c-0.7,0.8-1.1,2-1.1,3.7v5.1h-3.9L209.6,36.4L209.6,36.4z"/>
	<path class="st2" d="M220.4,36.4h3.9v2c0.2-0.3,0.5-0.6,0.7-0.8c0.3-0.3,0.6-0.5,0.9-0.7s0.7-0.4,1.1-0.5s0.9-0.2,1.4-0.2
		c0.9,0,1.7,0.2,2.4,0.6c0.7,0.4,1.2,0.9,1.5,1.6c0.6-0.7,1.3-1.3,2-1.7c0.7-0.4,1.6-0.6,2.5-0.6c1.5,0,2.6,0.4,3.4,1.3
		s1.2,2.1,1.2,3.8v9h-3.9v-7.7c0-0.9-0.2-1.6-0.6-2.1s-1-0.7-1.7-0.7s-1.3,0.2-1.7,0.7c-0.4,0.5-0.6,1.2-0.6,2.1v7.7H229v-7.7
		c0-0.9-0.2-1.6-0.6-2.1s-1-0.7-1.7-0.7s-1.3,0.2-1.7,0.7c-0.4,0.5-0.6,1.2-0.6,2.1v7.7h-4V36.4z"/>
	<path class="st2" d="M248.9,50.5c-0.7,0-1.3-0.1-1.8-0.3c-0.6-0.2-1.1-0.5-1.5-0.8c-0.4-0.4-0.8-0.8-1-1.3s-0.4-1.1-0.4-1.8v-0.1
		c0-0.8,0.1-1.4,0.4-2s0.7-1,1.2-1.4s1.1-0.6,1.8-0.8c0.7-0.2,1.4-0.3,2.3-0.3c0.7,0,1.3,0.1,1.8,0.2s1,0.2,1.5,0.4v-0.2
		c0-0.8-0.3-1.5-0.7-1.9c-0.5-0.4-1.2-0.6-2.2-0.6c-0.8,0-1.4,0.1-2,0.2s-1.2,0.3-1.8,0.6l-1-3c0.8-0.3,1.6-0.6,2.4-0.8
		c0.8-0.2,1.8-0.3,3-0.3c1.1,0,2,0.1,2.8,0.4s1.4,0.7,1.9,1.2s0.9,1.2,1.1,1.9c0.2,0.7,0.4,1.6,0.4,2.5v8h-3.8v-1.5
		c-0.5,0.5-1.1,1-1.7,1.3C250.7,50.3,249.9,50.5,248.9,50.5z M250.1,47.8c0.9,0,1.7-0.2,2.2-0.7c0.6-0.4,0.8-1,0.8-1.8v-0.7
		c-0.3-0.2-0.7-0.3-1.2-0.4c-0.4-0.1-0.9-0.1-1.4-0.1c-0.8,0-1.5,0.2-2,0.5s-0.7,0.8-0.7,1.4v0.1c0,0.5,0.2,0.9,0.6,1.2
		C249,47.6,249.5,47.8,250.1,47.8z"/>
	<path class="st2" d="M266.8,50.5c-1,0-2-0.2-2.9-0.6s-1.7-0.9-2.3-1.5c-0.6-0.6-1.1-1.4-1.5-2.3s-0.5-1.8-0.5-2.8v0
		c0-1,0.2-1.9,0.5-2.8c0.4-0.9,0.9-1.6,1.5-2.3c0.6-0.7,1.4-1.2,2.3-1.6s1.9-0.6,2.9-0.6c1.3,0,2.4,0.2,3.3,0.6s1.6,1,2.3,1.7
		l-2.4,2.6c-0.4-0.5-0.9-0.8-1.4-1.1c-0.5-0.3-1.1-0.4-1.8-0.4c-0.5,0-1,0.1-1.4,0.3c-0.4,0.2-0.8,0.5-1.1,0.8
		c-0.3,0.3-0.5,0.7-0.7,1.2s-0.2,0.9-0.2,1.5v0.1c0,0.5,0.1,1,0.2,1.5c0.2,0.5,0.4,0.9,0.7,1.2c0.3,0.3,0.7,0.6,1.1,0.8
		c0.4,0.2,0.9,0.3,1.4,0.3c0.7,0,1.2-0.1,1.7-0.4s1-0.6,1.5-1.1l2.3,2.3c-0.7,0.7-1.4,1.3-2.3,1.8S268.2,50.5,266.8,50.5z"/>
	<path class="st2" d="M275.1,31.3h4.1v3.5h-4.1V31.3z M275.2,36.4h3.9v13.9h-3.9V36.4z"/>
	<path class="st2" d="M289.7,50.5c-1.1,0-2.1-0.2-3-0.6s-1.7-0.9-2.4-1.5c-0.7-0.6-1.2-1.4-1.6-2.3s-0.6-1.8-0.6-2.8v0
		c0-1,0.2-1.9,0.6-2.8s0.9-1.6,1.6-2.3c0.7-0.7,1.5-1.2,2.4-1.6s1.9-0.6,3-0.6s2.1,0.2,3,0.6s1.7,0.9,2.4,1.5
		c0.7,0.6,1.2,1.4,1.6,2.3s0.6,1.8,0.6,2.8v0.1c0,1-0.2,1.9-0.6,2.8s-0.9,1.6-1.6,2.3c-0.7,0.7-1.5,1.2-2.4,1.6
		C291.8,50.3,290.8,50.5,289.7,50.5z M289.7,47.1c0.6,0,1.1-0.1,1.5-0.3c0.4-0.2,0.8-0.5,1.1-0.8c0.3-0.3,0.5-0.7,0.7-1.2
		s0.2-0.9,0.2-1.5l0,0c0-0.5-0.1-1-0.3-1.5c-0.2-0.5-0.4-0.9-0.7-1.2c-0.3-0.4-0.7-0.6-1.2-0.8c-0.4-0.2-0.9-0.3-1.5-0.3
		s-1.1,0.1-1.5,0.3c-0.4,0.2-0.8,0.5-1.1,0.8c-0.3,0.3-0.5,0.7-0.7,1.2s-0.2,0.9-0.2,1.5v0.1c0,0.5,0.1,1,0.3,1.5
		c0.2,0.5,0.4,0.9,0.7,1.2c0.3,0.4,0.7,0.6,1.2,0.8C288.7,47,289.2,47.1,289.7,47.1z M291.1,30.3l3.4,1.5l-3.3,3.1h-3L291.1,30.3z"
		/>
	<path class="st2" d="M300,36.4h3.9v2c0.2-0.3,0.5-0.6,0.7-0.8c0.3-0.3,0.6-0.5,0.9-0.7s0.7-0.4,1.1-0.5s0.8-0.2,1.3-0.2
		c1.5,0,2.7,0.5,3.5,1.4s1.2,2.2,1.2,3.8v9h-3.9v-7.7c0-0.9-0.2-1.6-0.6-2.1s-1-0.7-1.8-0.7s-1.4,0.2-1.8,0.7s-0.7,1.2-0.7,2.1v7.7
		h-3.9L300,36.4L300,36.4z"/>
	<path class="st2" d="M116.5,80.6c-0.7,0-1.4-0.1-1.9-0.3c-0.6-0.2-1.1-0.4-1.6-0.7l1.3-2.8c0.3,0.2,0.5,0.3,0.8,0.4
		s0.6,0.2,0.8,0.2c0.3,0,0.6-0.1,0.8-0.2s0.4-0.4,0.6-0.7l-5.4-13.9h4.2l3.2,9.4l3-9.4h4.1l-5.3,14.2c-0.3,0.7-0.5,1.3-0.8,1.8
		s-0.6,0.9-1,1.2c-0.4,0.3-0.8,0.5-1.2,0.7C117.6,80.5,117.1,80.6,116.5,80.6z"/>
	<path class="st2" d="M136.9,58.3h8.3c2.3,0,4,0.6,5.3,1.8c1,1,1.6,2.4,1.6,4.1v0.1c0,1.5-0.4,2.7-1.1,3.6c-0.7,0.9-1.6,1.6-2.8,2
		l4.4,6.5h-4.7l-3.9-5.8h-0.1h-3.1v5.8h-4L136.9,58.3L136.9,58.3z M144.9,67.1c1,0,1.7-0.2,2.3-0.7c0.5-0.5,0.8-1.1,0.8-1.9v-0.1
		c0-0.9-0.3-1.5-0.8-1.9c-0.6-0.4-1.3-0.6-2.3-0.6h-4v5.2H144.9z"/>
	<path class="st2" d="M161.7,76.7c-1,0-2-0.2-2.9-0.5s-1.7-0.8-2.3-1.5c-0.6-0.6-1.1-1.4-1.5-2.3s-0.5-1.8-0.5-2.9v-0.1
		c0-1,0.2-1.9,0.5-2.8s0.8-1.6,1.4-2.3c0.6-0.7,1.3-1.2,2.2-1.6c0.8-0.4,1.8-0.6,2.8-0.6c1.2,0,2.2,0.2,3,0.6s1.5,1,2.1,1.7
		s1,1.5,1.2,2.4c0.3,0.9,0.4,1.8,0.4,2.8c0,0.2,0,0.3,0,0.5s0,0.4,0,0.5h-9.7c0.2,0.9,0.6,1.6,1.2,2c0.6,0.5,1.3,0.7,2.2,0.7
		c0.7,0,1.2-0.1,1.8-0.3c0.5-0.2,1.1-0.6,1.6-1.1l2.2,2c-0.7,0.8-1.4,1.4-2.4,1.9C164.1,76.5,163,76.7,161.7,76.7z M164.3,68.4
		c-0.1-0.9-0.4-1.6-0.9-2.1s-1.2-0.8-2-0.8s-1.5,0.3-2,0.8s-0.8,1.2-1,2.1H164.3z"/>
	<path class="st2" d="M175.9,76.7c-1,0-2-0.2-3-0.5s-2-0.9-2.9-1.6l1.7-2.6c0.8,0.6,1.5,1,2.3,1.2c0.8,0.3,1.5,0.4,2.1,0.4
		s1-0.1,1.3-0.3c0.3-0.2,0.4-0.4,0.4-0.8v-0.1c0-0.2-0.1-0.4-0.2-0.5c-0.2-0.2-0.4-0.3-0.6-0.4c-0.3-0.1-0.6-0.2-0.9-0.3
		c-0.3-0.1-0.7-0.2-1.1-0.3c-0.5-0.1-1-0.3-1.5-0.5s-0.9-0.5-1.3-0.8s-0.7-0.7-1-1.2s-0.4-1-0.4-1.7v-0.1c0-0.7,0.1-1.3,0.4-1.9
		c0.3-0.5,0.6-1,1.1-1.4s1-0.7,1.6-0.9c0.6-0.2,1.3-0.3,2-0.3c0.9,0,1.8,0.1,2.7,0.4c0.9,0.3,1.7,0.7,2.5,1.2l-1.5,2.7
		c-0.7-0.4-1.4-0.7-2-0.9c-0.7-0.2-1.2-0.3-1.7-0.3s-0.8,0.1-1.1,0.3c-0.2,0.2-0.4,0.4-0.4,0.7v0.1c0,0.2,0.1,0.4,0.2,0.5
		c0.2,0.1,0.4,0.3,0.6,0.4c0.3,0.1,0.6,0.3,0.9,0.4s0.7,0.2,1.1,0.4c0.5,0.2,1,0.3,1.5,0.6c0.5,0.2,0.9,0.5,1.3,0.8s0.7,0.7,1,1.1
		s0.4,1,0.4,1.6v0.1c0,0.8-0.1,1.4-0.4,2s-0.6,1-1.1,1.4s-1,0.6-1.7,0.8C177.3,76.6,176.6,76.7,175.9,76.7z"/>
	<path class="st2" d="M184.1,57.5h4.1V61h-4.1V57.5z M184.2,62.5h3.9v13.9h-3.9V62.5z"/>
	<path class="st2" d="M192,57.5h3.9v18.9H192V57.5z"/>
	<path class="st2" d="M199.7,57.5h4.1V61h-4.1V57.5z M199.8,62.5h3.9v13.9h-3.9V62.5z"/>
	<path class="st2" d="M214,76.7c-1,0-2-0.2-2.9-0.5s-1.7-0.8-2.3-1.5c-0.6-0.6-1.1-1.4-1.5-2.3s-0.5-1.8-0.5-2.9v-0.1
		c0-1,0.2-1.9,0.5-2.8s0.8-1.6,1.4-2.3c0.6-0.7,1.3-1.2,2.2-1.6c0.8-0.4,1.8-0.6,2.8-0.6c1.2,0,2.2,0.2,3,0.6s1.5,1,2.1,1.7
		s1,1.5,1.2,2.4c0.3,0.9,0.4,1.8,0.4,2.8c0,0.2,0,0.3,0,0.5s0,0.4,0,0.5h-9.6c0.2,0.9,0.6,1.6,1.2,2c0.6,0.5,1.3,0.7,2.2,0.7
		c0.7,0,1.2-0.1,1.8-0.3c0.5-0.2,1.1-0.6,1.6-1.1l2.2,2c-0.7,0.8-1.4,1.4-2.4,1.9C216.3,76.5,215.2,76.7,214,76.7z M216.5,68.4
		c-0.1-0.9-0.4-1.6-0.9-2.1s-1.2-0.8-2-0.8s-1.5,0.3-2,0.8s-0.8,1.2-1,2.1H216.5z"/>
	<path class="st2" d="M223.3,62.5h3.9v2c0.2-0.3,0.5-0.6,0.7-0.8c0.3-0.3,0.6-0.5,0.9-0.7s0.7-0.4,1.1-0.5s0.8-0.2,1.3-0.2
		c1.5,0,2.7,0.5,3.5,1.4s1.2,2.2,1.2,3.8v9H232v-7.7c0-0.9-0.2-1.6-0.6-2.1s-1-0.7-1.8-0.7s-1.4,0.2-1.8,0.7s-0.7,1.2-0.7,2.1v7.7
		h-3.9L223.3,62.5L223.3,62.5z"/>
	<path class="st2" d="M245.9,76.7c-1,0-2-0.2-2.9-0.6s-1.7-0.9-2.3-1.5c-0.6-0.6-1.1-1.4-1.5-2.3s-0.5-1.8-0.5-2.8v-0.1
		c0-1,0.2-1.9,0.5-2.8c0.4-0.9,0.9-1.6,1.5-2.3c0.6-0.7,1.4-1.2,2.3-1.6s1.9-0.6,2.9-0.6c1.3,0,2.4,0.2,3.3,0.6s1.6,1,2.3,1.7
		l-2.4,2.6c-0.4-0.5-0.9-0.8-1.4-1.1c-0.5-0.3-1.1-0.4-1.8-0.4c-0.5,0-1,0.1-1.4,0.3c-0.4,0.2-0.8,0.5-1.1,0.8
		c-0.3,0.3-0.5,0.7-0.7,1.2s-0.2,0.9-0.2,1.5v0.1c0,0.5,0.1,1,0.2,1.5c0.2,0.5,0.4,0.9,0.7,1.2c0.3,0.3,0.7,0.6,1.1,0.8
		c0.4,0.2,0.9,0.3,1.4,0.3c0.7,0,1.2-0.1,1.7-0.4s1-0.6,1.5-1.1l2.3,2.3c-0.7,0.7-1.4,1.3-2.3,1.8C248.4,76.5,247.3,76.7,245.9,76.7
		z"/>
	<path class="st2" d="M254.2,57.5h4.1V61h-4.1V57.5z M254.3,62.5h3.9v13.9h-3.9V62.5z"/>
	<path class="st2" d="M265.9,76.7c-0.7,0-1.3-0.1-1.8-0.3c-0.6-0.2-1.1-0.5-1.5-0.8c-0.4-0.4-0.8-0.8-1-1.3
		c-0.3-0.5-0.4-1.1-0.4-1.8v-0.1c0-0.8,0.1-1.4,0.4-2s0.7-1,1.1-1.4c0.5-0.4,1.1-0.6,1.8-0.8c0.7-0.2,1.4-0.3,2.3-0.3
		c0.7,0,1.3,0.1,1.8,0.2s1,0.2,1.5,0.4v-0.2c0-0.8-0.3-1.5-0.8-1.9s-1.2-0.6-2.2-0.6c-0.8,0-1.4,0.1-2,0.2s-1.2,0.3-1.8,0.6l-1-3
		c0.8-0.3,1.6-0.6,2.4-0.8c0.8-0.2,1.8-0.3,3-0.3c1.1,0,2,0.1,2.8,0.4s1.4,0.7,1.9,1.2s0.9,1.2,1.1,1.9c0.2,0.7,0.4,1.6,0.4,2.5v8
		h-3.8V75c-0.5,0.5-1.1,1-1.7,1.3C267.6,76.5,266.8,76.7,265.9,76.7z M267,73.9c0.9,0,1.7-0.2,2.2-0.7c0.6-0.4,0.8-1,0.8-1.8v-0.7
		c-0.3-0.2-0.7-0.3-1.2-0.4c-0.4-0.1-0.9-0.1-1.4-0.1c-0.8,0-1.5,0.2-2,0.5s-0.7,0.8-0.7,1.4v0.1c0,0.5,0.2,0.9,0.6,1.2
		C265.9,73.8,266.4,73.9,267,73.9z"/>
</g>
</svg>
