<?xml version="1.0" encoding="utf-8"?>
<!-- Generator: Adobe Illustrator 26.5.0, SVG Export Plug-In . SVG Version: 6.00 Build 0)  -->
<svg version="1.1" id="Layer_1" xmlns="http://www.w3.org/2000/svg" xmlns:xlink="http://www.w3.org/1999/xlink" x="0px" y="0px"
	 viewBox="0 0 803.4 200.3" style="enable-background:new 0 0 803.4 200.3;" xml:space="preserve">
<style type="text/css">
	.st0{fill:#FFFFFF;}
	.st1{fill:#034EA2;}
	.st2{fill:#FFF200;}
	.st3{enable-background:new    ;}
	.st4{fill:#58595B;}
</style>
<g>
	<rect class="st0" width="294.9" height="200.3"/>
	<path class="st0" d="M147.5,102"/>
	<rect x="5.7" y="5.5" class="st1" width="283.6" height="189.1"/>
	<path class="st1" d="M147.5,100"/>
	<polyline class="st2" points="141.5,46.7 147.5,42.3 153.4,46.7 151.2,39.6 157.2,35.3 149.8,35.3 147.5,28.1 145.2,35.3 
		137.7,35.3 143.8,39.6 141.5,46.7 	"/>
	<polyline class="st2" points="110.5,55 116.5,50.6 122.5,55 120.2,48 126.3,43.6 118.8,43.6 116.5,36.4 114.2,43.6 106.7,43.6 
		112.8,48 110.5,55 	"/>
	<polyline class="st2" points="93.8,59.1 91.5,66.3 84.1,66.3 90.1,70.7 87.8,77.7 93.8,73.4 99.8,77.7 97.5,70.7 103.6,66.3 
		96.1,66.3 93.8,59.1 	"/>
	<polyline class="st2" points="85.5,104.3 91.5,108.7 89.2,101.6 95.3,97.2 87.8,97.2 85.5,90.1 83.2,97.2 75.7,97.2 81.8,101.6 
		79.5,108.7 85.5,104.3 	"/>
	<polyline class="st2" points="96.1,128.2 93.8,121.1 91.5,128.3 84.1,128.2 90.1,132.6 87.8,139.7 93.8,135.3 99.8,139.7 
		97.5,132.6 103.6,128.2 96.1,128.2 	"/>
	<polyline class="st2" points="118.8,151 116.5,143.8 114.2,151 106.8,151 112.8,155.3 110.6,162.4 116.5,158 122.5,162.4 
		120.2,155.3 126.3,151 118.8,151 	"/>
	<polyline class="st2" points="149.8,159.2 147.5,152 145.2,159.2 137.7,159.2 143.8,163.5 141.5,170.6 147.5,166.2 153.4,170.6 
		151.2,163.5 157.2,159.2 149.8,159.2 	"/>
	<polyline class="st2" points="180.7,151 178.4,143.8 176.1,151 168.6,151 174.7,155.3 172.4,162.4 178.4,158 184.4,162.4 
		182.1,155.3 188.2,151 180.7,151 	"/>
	<polyline class="st2" points="203.4,128.2 201.1,121.1 198.8,128.3 191.3,128.2 197.4,132.6 195.1,139.7 201.1,135.3 207.1,139.7 
		204.8,132.6 210.9,128.2 203.4,128.2 	"/>
	<polyline class="st2" points="219.1,97.1 211.6,97.1 209.3,90 207,97.1 199.5,97.1 205.6,101.5 203.3,108.6 209.3,104.2 
		215.3,108.6 213,101.5 219.1,97.1 	"/>
	<polyline class="st2" points="195.1,77.6 201.1,73.3 207.1,77.6 204.8,70.6 210.9,66.2 203.4,66.2 201.1,59.1 198.8,66.2 
		191.3,66.2 197.4,70.6 195.1,77.6 	"/>
	<polyline class="st2" points="178.5,36.4 176.2,43.6 168.7,43.6 174.8,48 172.5,55 178.5,50.6 184.5,55 182.2,48 188.3,43.6 
		180.8,43.6 178.5,36.4 	"/>
	<g>
		<path class="st1" d="M324.4,47.7V5.5h29v7.1H333v10h17.6v7.1H333v17.9h-8.6V47.7z"/>
		<path class="st1" d="M360.4,13V5.5h8.1V13H360.4z M360.4,47.7V17.1h8.1v30.6H360.4z"/>
		<path class="st1" d="M404.6,47.7h-8.1V32.1c0-3.3-0.2-5.4-0.5-6.4s-0.9-1.7-1.7-2.3c-0.8-0.5-1.7-0.8-2.8-0.8
			c-1.4,0-2.7,0.4-3.8,1.2c-1.1,0.8-1.9,1.8-2.3,3.1s-0.6,3.6-0.6,7v13.9h-8.1V17.1h7.5v4.5c2.7-3.5,6-5.2,10.1-5.2
			c1.8,0,3.4,0.3,4.9,1c1.5,0.6,2.6,1.5,3.4,2.5s1.3,2.1,1.6,3.4s0.4,3.1,0.4,5.4V47.7z"/>
		<path class="st1" d="M418.8,26.5l-7.3-1.3c0.8-3,2.2-5.1,4.3-6.6c2-1.4,5-2.1,9-2.1c3.6,0,6.3,0.4,8.1,1.3c1.8,0.9,3,1.9,3.7,3.3
			c0.7,1.3,1.1,3.7,1.1,7.2l-0.1,9.4c0,2.7,0.1,4.7,0.4,5.9c0.3,1.3,0.7,2.6,1.5,4.1h-8c-0.2-0.5-0.5-1.3-0.8-2.4
			c-0.1-0.5-0.2-0.8-0.3-1c-1.4,1.3-2.9,2.4-4.4,3c-1.6,0.7-3.3,1-5,1c-3.2,0-5.6-0.9-7.4-2.6s-2.7-3.9-2.7-6.5
			c0-1.7,0.4-3.3,1.2-4.6c0.8-1.4,2-2.4,3.5-3.1c1.5-0.7,3.6-1.3,6.4-1.9c3.8-0.7,6.4-1.4,7.9-2v-0.8c0-1.6-0.4-2.7-1.2-3.3
			c-0.8-0.7-2.2-1-4.4-1c-1.4,0-2.6,0.3-3.4,0.9S419.3,25,418.8,26.5z M429.7,33c-1,0.3-2.7,0.8-4.9,1.2c-2.2,0.5-3.7,1-4.4,1.4
			c-1.1,0.7-1.6,1.7-1.6,2.9c0,1.1,0.4,2.1,1.3,2.9c0.8,0.8,1.9,1.2,3.2,1.2c1.5,0,2.9-0.5,4.2-1.4c1-0.7,1.6-1.6,1.9-2.7
			c0.2-0.7,0.3-2,0.3-3.9V33z"/>
		<path class="st1" d="M473.4,47.7h-8.1V32.1c0-3.3-0.2-5.4-0.5-6.4s-0.9-1.7-1.7-2.3c-0.8-0.5-1.7-0.8-2.8-0.8
			c-1.4,0-2.7,0.4-3.8,1.2c-1.1,0.8-1.9,1.8-2.3,3.1s-0.6,3.6-0.6,7v13.9h-8.1V17.1h7.5v4.5c2.7-3.5,6-5.2,10.1-5.2
			c1.8,0,3.4,0.3,4.9,1c1.5,0.6,2.6,1.5,3.4,2.5s1.3,2.1,1.6,3.4s0.4,3.1,0.4,5.4V47.7z"/>
		<path class="st1" d="M508.3,26.2l-8,1.4c-0.3-1.6-0.9-2.8-1.8-3.6c-1-0.8-2.2-1.2-3.7-1.2c-2,0-3.6,0.7-4.8,2.1
			c-1.2,1.4-1.8,3.7-1.8,7c0,3.6,0.6,6.2,1.8,7.7s2.9,2.2,4.9,2.2c1.5,0,2.8-0.4,3.8-1.3s1.7-2.4,2.1-4.5l8,1.4
			c-0.8,3.6-2.4,6.4-4.8,8.3c-2.3,1.9-5.5,2.8-9.4,2.8c-4.5,0-8-1.4-10.7-4.2s-4-6.7-4-11.7c0-5.1,1.3-9,4-11.8s6.3-4.2,10.8-4.2
			c3.7,0,6.7,0.8,8.9,2.4C505.8,20.4,507.4,22.9,508.3,26.2z"/>
		<path class="st1" d="M514.5,13V5.5h8.1V13H514.5z M514.5,47.7V17.1h8.1v30.6H514.5z"/>
		<path class="st1" d="M536.9,26.5l-7.3-1.3c0.8-3,2.2-5.1,4.3-6.6c2-1.4,5-2.1,9-2.1c3.6,0,6.3,0.4,8.1,1.3c1.8,0.9,3,1.9,3.7,3.3
			c0.7,1.3,1.1,3.7,1.1,7.2l-0.1,9.4c0,2.7,0.1,4.7,0.4,5.9c0.3,1.3,0.7,2.6,1.5,4.1h-8c-0.2-0.5-0.5-1.3-0.8-2.4
			c-0.1-0.5-0.2-0.8-0.3-1c-1.4,1.3-2.9,2.4-4.4,3c-1.6,0.7-3.3,1-5,1c-3.2,0-5.6-0.9-7.4-2.6c-1.8-1.7-2.7-3.9-2.7-6.5
			c0-1.7,0.4-3.3,1.2-4.6c0.8-1.4,2-2.4,3.5-3.1c1.5-0.7,3.6-1.3,6.4-1.9c3.8-0.7,6.4-1.4,7.9-2v-0.8c0-1.6-0.4-2.7-1.2-3.3
			c-0.8-0.7-2.2-1-4.4-1c-1.4,0-2.6,0.3-3.4,0.9S537.4,25,536.9,26.5z M547.7,33c-1,0.3-2.7,0.8-4.9,1.2c-2.2,0.5-3.7,1-4.4,1.4
			c-1.1,0.7-1.6,1.7-1.6,2.9c0,1.1,0.4,2.1,1.3,2.9c0.8,0.8,1.9,1.2,3.2,1.2c1.5,0,2.9-0.5,4.2-1.4c1-0.7,1.6-1.6,1.9-2.7
			c0.2-0.7,0.3-2,0.3-3.9V33z"/>
		<path class="st1" d="M591.7,47.7h-7.5v-4.5c-1.2,1.7-2.7,3-4.4,3.9s-3.4,1.3-5.1,1.3c-3.5,0-6.5-1.4-9-4.2
			c-2.5-2.8-3.8-6.8-3.8-11.9c0-5.2,1.2-9.1,3.7-11.8c2.4-2.7,5.5-4,9.2-4c3.4,0,6.4,1.4,8.9,4.3V5.5h8.1v42.2H591.7z M570.1,31.8
			c0,3.3,0.5,5.6,1.4,7.1c1.3,2.1,3.1,3.2,5.5,3.2c1.9,0,3.4-0.8,4.8-2.4c1.3-1.6,2-4,2-7.1c0-3.5-0.6-6-1.9-7.6
			c-1.3-1.5-2.9-2.3-4.9-2.3c-1.9,0-3.5,0.8-4.8,2.3C570.8,26.4,570.1,28.7,570.1,31.8z"/>
		<path class="st1" d="M597.8,32c0-2.7,0.7-5.3,2-7.8s3.2-4.4,5.6-5.8c2.4-1.3,5.1-2,8.1-2c4.6,0,8.4,1.5,11.4,4.5s4.4,6.8,4.4,11.4
			c0,4.6-1.5,8.5-4.5,11.5s-6.7,4.6-11.3,4.6c-2.8,0-5.5-0.6-8-1.9s-4.5-3.1-5.8-5.6C598.5,38.5,597.8,35.5,597.8,32z M606.1,32.4
			c0,3,0.7,5.4,2.2,7c1.4,1.6,3.2,2.4,5.3,2.4s3.9-0.8,5.3-2.4c1.4-1.6,2.1-4,2.1-7s-0.7-5.3-2.1-6.9c-1.4-1.6-3.2-2.4-5.3-2.4
			s-3.9,0.8-5.3,2.4C606.8,27.1,606.1,29.4,606.1,32.4z"/>
		<path class="st1" d="M651.9,17.1h7.5v4.5c1-1.5,2.3-2.8,4-3.7c1.7-1,3.5-1.4,5.6-1.4c3.6,0,6.6,1.4,9,4.2
			c2.5,2.8,3.7,6.7,3.7,11.6c0,5.1-1.2,9.1-3.7,11.9s-5.5,4.2-9.1,4.2c-1.7,0-3.2-0.3-4.6-1c-1.4-0.7-2.8-1.8-4.3-3.5v15.4h-8.1
			L651.9,17.1L651.9,17.1z M659.9,31.9c0,3.4,0.7,6,2,7.6c1.4,1.6,3,2.5,5,2.5c1.9,0,3.4-0.8,4.7-2.3c1.2-1.5,1.9-4,1.9-7.4
			c0-3.2-0.6-5.6-1.9-7.1c-1.3-1.6-2.9-2.3-4.8-2.3c-2,0-3.6,0.8-4.9,2.3C660.6,26.6,659.9,28.9,659.9,31.9z"/>
		<path class="st1" d="M686.3,32c0-2.7,0.7-5.3,2-7.8s3.2-4.4,5.6-5.8c2.4-1.3,5.1-2,8.1-2c4.6,0,8.4,1.5,11.4,4.5s4.4,6.8,4.4,11.4
			c0,4.6-1.5,8.5-4.5,11.5s-6.7,4.6-11.3,4.6c-2.8,0-5.5-0.6-8-1.9s-4.5-3.1-5.8-5.6C687,38.5,686.3,35.5,686.3,32z M694.6,32.4
			c0,3,0.7,5.4,2.2,7c1.4,1.6,3.2,2.4,5.3,2.4s3.9-0.8,5.3-2.4c1.4-1.6,2.1-4,2.1-7s-0.7-5.3-2.1-6.9c-1.4-1.6-3.2-2.4-5.3-2.4
			s-3.9,0.8-5.3,2.4C695.3,27.1,694.6,29.4,694.6,32.4z"/>
		<path class="st1" d="M732,47.7h-8.1V17.1h7.5v4.4c1.3-2.1,2.4-3.4,3.5-4.1c1-0.7,2.2-1,3.5-1c1.8,0,3.6,0.5,5.3,1.5l-2.5,7.1
			c-1.4-0.9-2.6-1.3-3.8-1.3c-1.1,0-2.1,0.3-2.9,0.9c-0.8,0.6-1.4,1.8-1.9,3.4c-0.5,1.6-0.7,5.1-0.7,10.3v9.4H732z"/>
		<path class="st1" d="M324.3,118.5V76.3h8.1v42.2H324.3z"/>
		<path class="st1" d="M346.8,97.3l-7.3-1.3c0.8-3,2.2-5.1,4.3-6.6c2-1.4,5-2.1,9-2.1c3.6,0,6.3,0.4,8.1,1.3c1.8,0.9,3,1.9,3.7,3.3
			c0.7,1.3,1.1,3.7,1.1,7.2l-0.1,9.4c0,2.7,0.1,4.7,0.4,5.9c0.3,1.3,0.7,2.6,1.5,4.1h-8c-0.2-0.5-0.5-1.3-0.8-2.4
			c-0.1-0.5-0.2-0.8-0.3-1c-1.4,1.3-2.9,2.4-4.4,3c-1.6,0.7-3.3,1-5,1c-3.2,0-5.6-0.9-7.4-2.6c-1.8-1.7-2.7-3.9-2.7-6.5
			c0-1.7,0.4-3.3,1.2-4.6c0.8-1.4,2-2.4,3.5-3.1c1.5-0.7,3.6-1.3,6.4-1.9c3.8-0.7,6.4-1.4,7.9-2v-0.8c0-1.6-0.4-2.7-1.2-3.3
			c-0.8-0.7-2.2-1-4.4-1c-1.4,0-2.6,0.3-3.4,0.9S347.3,95.8,346.8,97.3z M357.6,103.8c-1,0.3-2.7,0.8-4.9,1.2
			c-2.2,0.5-3.7,1-4.4,1.4c-1.1,0.7-1.6,1.7-1.6,2.9c0,1.1,0.4,2.1,1.3,2.9c0.8,0.8,1.9,1.2,3.2,1.2c1.5,0,2.9-0.5,4.2-1.4
			c1-0.7,1.6-1.6,1.9-2.7c0.2-0.7,0.3-2,0.3-3.9V103.8z"/>
		<path class="st1" d="M389.9,76.3h8.5v22.9c0,3.6,0.1,6,0.3,7.1c0.4,1.7,1.2,3.1,2.6,4.2c1.4,1,3.2,1.6,5.6,1.6s4.2-0.5,5.5-1.5
			c1.2-1,2-2.2,2.2-3.6c0.2-1.4,0.4-3.8,0.4-7.2V76.4h8.5v22.2c0,5.1-0.2,8.7-0.7,10.7c-0.5,2.1-1.3,3.9-2.5,5.3
			c-1.2,1.4-2.9,2.6-5,3.4c-2.1,0.9-4.8,1.3-8.1,1.3c-4,0-7.1-0.5-9.2-1.4s-3.7-2.1-4.9-3.6c-1.2-1.5-2-3-2.4-4.7
			c-0.6-2.4-0.8-6-0.8-10.7V76.3z"/>
		<path class="st1" d="M460.3,118.5h-8.1v-15.6c0-3.3-0.2-5.4-0.5-6.4s-0.9-1.7-1.7-2.3c-0.8-0.5-1.7-0.8-2.8-0.8
			c-1.4,0-2.7,0.4-3.8,1.2c-1.1,0.8-1.9,1.8-2.3,3.1s-0.6,3.6-0.6,7v13.9h-8.1V87.9h7.5v4.5c2.7-3.5,6-5.2,10.1-5.2
			c1.8,0,3.4,0.3,4.9,1c1.5,0.6,2.6,1.5,3.4,2.5s1.3,2.1,1.6,3.4s0.4,3.1,0.4,5.4V118.5z"/>
		<path class="st1" d="M468.6,83.8v-7.5h8.1v7.5H468.6z M468.6,118.5V87.9h8.1v30.6H468.6z"/>
		<path class="st1" d="M483.1,102.8c0-2.7,0.7-5.3,2-7.8s3.2-4.4,5.6-5.8c2.4-1.3,5.1-2,8.1-2c4.6,0,8.4,1.5,11.4,4.5
			s4.4,6.8,4.4,11.4c0,4.6-1.5,8.5-4.5,11.5s-6.7,4.6-11.3,4.6c-2.8,0-5.5-0.6-8-1.9c-2.5-1.3-4.5-3.1-5.8-5.6
			C483.7,109.3,483.1,106.3,483.1,102.8z M491.4,103.2c0,3,0.7,5.4,2.2,7c1.4,1.6,3.2,2.4,5.3,2.4c2.1,0,3.9-0.8,5.3-2.4
			c1.4-1.6,2.1-4,2.1-7s-0.7-5.3-2.1-6.9c-1.4-1.6-3.2-2.4-5.3-2.4s-3.9,0.8-5.3,2.4C492.1,97.9,491.4,100.2,491.4,103.2z
			 M494.8,84.2l4-8.6h9.1l-7.9,8.6H494.8z"/>
		<path class="st1" d="M548.8,118.5h-8.1v-15.6c0-3.3-0.2-5.4-0.5-6.4s-0.9-1.7-1.7-2.3c-0.8-0.5-1.7-0.8-2.8-0.8
			c-1.4,0-2.7,0.4-3.8,1.2c-1.1,0.8-1.9,1.8-2.3,3.1s-0.6,3.6-0.6,7v13.9h-8.1V87.9h7.5v4.5c2.7-3.5,6-5.2,10.1-5.2
			c1.8,0,3.4,0.3,4.9,1c1.5,0.6,2.6,1.5,3.4,2.5c0.8,1,1.3,2.1,1.6,3.4s0.4,3.1,0.4,5.4L548.8,118.5L548.8,118.5z"/>
		<path class="st1" d="M573.5,118.5V76.3h31.3v7.1H582v9.4h21.2v7.1H582v11.5h23.6v7.1H573.5z"/>
		<path class="st1" d="M632.9,118.5v-4.6c-1.1,1.6-2.6,2.9-4.4,3.9c-1.8,0.9-3.7,1.4-5.7,1.4c-2.1,0-3.9-0.5-5.5-1.4
			s-2.8-2.2-3.5-3.8s-1.1-3.9-1.1-6.8V87.9h8.1V102c0,4.3,0.1,6.9,0.4,7.9s0.8,1.7,1.6,2.3s1.8,0.8,3,0.8c1.4,0,2.6-0.4,3.7-1.1
			c1.1-0.8,1.8-1.7,2.2-2.8s0.6-3.9,0.6-8.3V87.9h8.1v30.6H632.9z"/>
		<path class="st1" d="M656.6,118.5h-8.1V87.9h7.5v4.4c1.3-2.1,2.4-3.4,3.5-4.1c1-0.7,2.2-1,3.5-1c1.8,0,3.6,0.5,5.3,1.5l-2.5,7.1
			c-1.4-0.9-2.6-1.3-3.8-1.3c-1.1,0-2.1,0.3-2.9,0.9c-0.8,0.6-1.4,1.8-1.9,3.4s-0.7,5.1-0.7,10.3v9.4H656.6z"/>
		<path class="st1" d="M669.9,102.8c0-2.7,0.7-5.3,2-7.8s3.2-4.4,5.6-5.8c2.4-1.3,5.1-2,8.1-2c4.6,0,8.4,1.5,11.4,4.5
			s4.4,6.8,4.4,11.4c0,4.6-1.5,8.5-4.5,11.5s-6.7,4.6-11.3,4.6c-2.8,0-5.5-0.6-8-1.9c-2.5-1.3-4.5-3.1-5.8-5.6
			C670.6,109.3,669.9,106.3,669.9,102.8z M678.2,103.2c0,3,0.7,5.4,2.2,7c1.4,1.6,3.2,2.4,5.3,2.4s3.9-0.8,5.3-2.4
			c1.4-1.6,2.1-4,2.1-7s-0.7-5.3-2.1-6.9c-1.4-1.6-3.2-2.4-5.3-2.4s-3.9,0.8-5.3,2.4C678.9,97.9,678.2,100.2,678.2,103.2z"/>
		<path class="st1" d="M707.6,87.9h7.5v4.5c1-1.5,2.3-2.8,4-3.7c1.7-1,3.5-1.4,5.6-1.4c3.6,0,6.6,1.4,9,4.2
			c2.5,2.8,3.7,6.7,3.7,11.6c0,5.1-1.2,9.1-3.7,11.9c-2.5,2.8-5.5,4.2-9.1,4.2c-1.7,0-3.2-0.3-4.6-1c-1.4-0.7-2.8-1.8-4.3-3.5v15.4
			h-8.1L707.6,87.9L707.6,87.9z M715.6,102.7c0,3.4,0.7,6,2,7.6c1.4,1.6,3,2.5,5,2.5c1.9,0,3.4-0.8,4.7-2.3c1.2-1.5,1.9-4,1.9-7.4
			c0-3.2-0.6-5.6-1.9-7.1c-1.3-1.6-2.9-2.3-4.8-2.3c-2,0-3.6,0.8-4.9,2.3C716.2,97.4,715.6,99.7,715.6,102.7z"/>
		<path class="st1" d="M761.6,108.8l8.1,1.4c-1,3-2.7,5.2-4.9,6.8s-5,2.3-8.4,2.3c-5.3,0-9.3-1.7-11.8-5.2c-2-2.8-3-6.3-3-10.5
			c0-5.1,1.3-9,4-11.9s6-4.3,10.1-4.3c4.6,0,8.1,1.5,10.8,4.5c2.6,3,3.9,7.6,3.8,13.8H750c0.1,2.4,0.7,4.3,2,5.6
			c1.2,1.3,2.8,2,4.7,2c1.3,0,2.3-0.3,3.2-1S761.1,110.3,761.6,108.8z M762,100.6c-0.1-2.3-0.7-4.1-1.8-5.3s-2.6-1.8-4.2-1.8
			c-1.8,0-3.2,0.6-4.4,1.9s-1.7,3-1.7,5.2C749.9,100.6,762,100.6,762,100.6z"/>
		<path class="st1" d="M782.7,97.3l-7.3-1.3c0.8-3,2.2-5.1,4.3-6.6c2-1.4,5-2.1,9-2.1c3.6,0,6.3,0.4,8.1,1.3s3,1.9,3.7,3.3
			c0.7,1.3,1.1,3.7,1.1,7.2l-0.1,9.4c0,2.7,0.1,4.7,0.4,5.9c0.3,1.3,0.7,2.6,1.5,4.1h-8c-0.2-0.5-0.5-1.3-0.8-2.4
			c-0.1-0.5-0.2-0.8-0.3-1c-1.4,1.3-2.9,2.4-4.4,3c-1.6,0.7-3.3,1-5,1c-3.2,0-5.6-0.9-7.4-2.6c-1.8-1.7-2.7-3.9-2.7-6.5
			c0-1.7,0.4-3.3,1.2-4.6c0.8-1.4,2-2.4,3.5-3.1c1.5-0.7,3.6-1.3,6.4-1.9c3.8-0.7,6.4-1.4,7.9-2v-0.8c0-1.6-0.4-2.7-1.2-3.3
			c-0.8-0.7-2.2-1-4.4-1c-1.4,0-2.6,0.3-3.4,0.9S783.2,95.8,782.7,97.3z M793.5,103.8c-1,0.3-2.7,0.8-4.9,1.2
			c-2.2,0.5-3.7,1-4.4,1.4c-1.1,0.7-1.6,1.7-1.6,2.9c0,1.1,0.4,2.1,1.3,2.9c0.8,0.8,1.9,1.2,3.2,1.2c1.5,0,2.9-0.5,4.2-1.4
			c1-0.7,1.6-1.6,1.9-2.7c0.2-0.7,0.3-2,0.3-3.9V103.8z"/>
	</g>
	<g>
		<g class="st3">
			<path class="st4" d="M324.4,194.5V158h5l19.2,28.7V158h4.6v36.5h-5L329,165.8v28.7H324.4z"/>
			<path class="st4" d="M378.8,186l4.6,0.6c-0.7,2.7-2.1,4.8-4.1,6.3c-2,1.5-4.5,2.2-7.6,2.2c-3.9,0-6.9-1.2-9.2-3.6
				c-2.3-2.4-3.4-5.7-3.4-10c0-4.4,1.1-7.9,3.4-10.4s5.3-3.7,8.9-3.7c3.5,0,6.4,1.2,8.7,3.6c2.2,2.4,3.4,5.8,3.4,10.2
				c0,0.3,0,0.7,0,1.2h-19.7c0.2,2.9,1,5.1,2.5,6.7c1.5,1.5,3.3,2.3,5.5,2.3c1.6,0,3-0.4,4.2-1.3C377.2,189.3,378.1,187.9,378.8,186
				z M364.1,178.7h14.8c-0.2-2.2-0.8-3.9-1.7-5c-1.4-1.7-3.3-2.6-5.6-2.6c-2.1,0-3.8,0.7-5.2,2.1C365,174.6,364.2,176.4,364.1,178.7
				z"/>
			<path class="st4" d="M386.1,194.5l9.7-13.7l-8.9-12.7h5.6l4.1,6.2c0.8,1.2,1.4,2.2,1.8,3c0.7-1.1,1.4-2.1,2-2.9l4.5-6.3h5.4
				l-9.1,12.5l9.8,14h-5.5l-5.4-8.2l-1.4-2.2l-6.9,10.4H386.1z"/>
			<path class="st4" d="M424.3,190.5l0.6,4c-1.3,0.3-2.4,0.4-3.4,0.4c-1.6,0-2.9-0.3-3.8-0.8c-0.9-0.5-1.5-1.2-1.9-2
				c-0.4-0.8-0.5-2.6-0.5-5.3v-15.2h-3.3v-3.5h3.3v-6.5l4.5-2.7v9.2h4.5v3.5h-4.5V187c0,1.3,0.1,2.1,0.2,2.5
				c0.2,0.4,0.4,0.7,0.8,0.9c0.4,0.2,0.9,0.3,1.5,0.3C422.9,190.7,423.5,190.6,424.3,190.5z"/>
			<path class="st4" d="M446.4,180.2v-4.3l15.5,0v13.5c-2.4,1.9-4.8,3.3-7.3,4.3c-2.5,1-5.1,1.4-7.8,1.4c-3.6,0-6.8-0.8-9.8-2.3
				c-2.9-1.5-5.1-3.8-6.6-6.7s-2.2-6.2-2.2-9.7c0-3.6,0.7-6.9,2.2-9.9c1.5-3.1,3.6-5.4,6.4-6.9s6-2.2,9.6-2.2c2.6,0,5,0.4,7.2,1.3
				c2.1,0.9,3.8,2,5,3.6c1.2,1.5,2.1,3.5,2.8,6l-4.4,1.2c-0.5-1.9-1.2-3.3-2-4.4c-0.8-1.1-2-1.9-3.5-2.6c-1.5-0.6-3.2-1-5-1
				c-2.2,0-4.1,0.3-5.7,1c-1.6,0.7-2.9,1.6-3.9,2.7c-1,1.1-1.8,2.3-2.3,3.6c-0.9,2.3-1.4,4.7-1.4,7.3c0,3.3,0.6,6,1.7,8.2
				c1.1,2.2,2.8,3.8,4.9,4.9s4.4,1.6,6.8,1.6c2.1,0,4.1-0.4,6.1-1.2c2-0.8,3.5-1.7,4.5-2.6v-6.8H446.4z"/>
			<path class="st4" d="M486.5,186l4.6,0.6c-0.7,2.7-2.1,4.8-4.1,6.3c-2,1.5-4.5,2.2-7.6,2.2c-3.9,0-6.9-1.2-9.2-3.6
				c-2.3-2.4-3.4-5.7-3.4-10c0-4.4,1.1-7.9,3.4-10.4s5.3-3.7,8.9-3.7c3.5,0,6.4,1.2,8.7,3.6c2.2,2.4,3.4,5.8,3.4,10.2
				c0,0.3,0,0.7,0,1.2h-19.7c0.2,2.9,1,5.1,2.5,6.7c1.5,1.5,3.3,2.3,5.5,2.3c1.6,0,3-0.4,4.2-1.3C484.9,189.3,485.8,187.9,486.5,186
				z M471.8,178.7h14.8c-0.2-2.2-0.8-3.9-1.7-5c-1.4-1.7-3.3-2.6-5.6-2.6c-2.1,0-3.8,0.7-5.2,2.1
				C472.7,174.6,471.9,176.4,471.8,178.7z"/>
			<path class="st4" d="M496.8,194.5v-26.4h4v3.8c1.9-2.9,4.7-4.4,8.4-4.4c1.6,0,3.1,0.3,4.4,0.9c1.3,0.6,2.3,1.3,3,2.3
				c0.7,0.9,1.1,2,1.4,3.3c0.2,0.8,0.2,2.3,0.2,4.4v16.3h-4.5v-16.1c0-1.8-0.2-3.2-0.5-4.1c-0.3-0.9-1-1.6-1.9-2.2
				c-0.9-0.5-1.9-0.8-3.1-0.8c-1.9,0-3.6,0.6-4.9,1.8c-1.4,1.2-2.1,3.5-2.1,6.9v14.4H496.8z"/>
			<path class="st4" d="M543.2,186l4.6,0.6c-0.7,2.7-2.1,4.8-4.1,6.3c-2,1.5-4.5,2.2-7.6,2.2c-3.9,0-6.9-1.2-9.2-3.6
				c-2.3-2.4-3.4-5.7-3.4-10c0-4.4,1.1-7.9,3.4-10.4s5.3-3.7,8.9-3.7c3.5,0,6.4,1.2,8.7,3.6c2.2,2.4,3.4,5.8,3.4,10.2
				c0,0.3,0,0.7,0,1.2h-19.7c0.2,2.9,1,5.1,2.5,6.7c1.5,1.5,3.3,2.3,5.5,2.3c1.6,0,3-0.4,4.2-1.3C541.6,189.3,542.5,187.9,543.2,186
				z M528.5,178.7h14.8c-0.2-2.2-0.8-3.9-1.7-5c-1.4-1.7-3.3-2.6-5.6-2.6c-2.1,0-3.8,0.7-5.2,2.1
				C529.4,174.6,528.7,176.4,528.5,178.7z"/>
			<path class="st4" d="M553.4,194.5v-26.4h4v4c1-1.9,2-3.1,2.9-3.7c0.9-0.6,1.8-0.9,2.9-0.9c1.5,0,3,0.5,4.6,1.4l-1.5,4.2
				c-1.1-0.6-2.2-1-3.3-1c-1,0-1.9,0.3-2.6,0.9c-0.8,0.6-1.3,1.4-1.7,2.5c-0.5,1.6-0.7,3.3-0.7,5.2v13.8H553.4z"/>
			<path class="st4" d="M587.7,191.2c-1.7,1.4-3.3,2.4-4.8,3c-1.5,0.6-3.2,0.9-4.9,0.9c-2.9,0-5.1-0.7-6.7-2.1
				c-1.6-1.4-2.3-3.2-2.3-5.4c0-1.3,0.3-2.5,0.9-3.5c0.6-1.1,1.4-1.9,2.3-2.6c1-0.6,2-1.1,3.2-1.5c0.9-0.2,2.2-0.5,4-0.7
				c3.6-0.4,6.3-0.9,8-1.5c0-0.6,0-1,0-1.2c0-1.8-0.4-3.1-1.3-3.9c-1.1-1-2.8-1.5-5.1-1.5c-2.1,0-3.7,0.4-4.7,1.1
				c-1,0.7-1.7,2-2.2,3.9l-4.4-0.6c0.4-1.9,1.1-3.4,2-4.5c0.9-1.2,2.2-2,4-2.7c1.7-0.6,3.7-0.9,6-0.9c2.3,0,4.1,0.3,5.5,0.8
				s2.4,1.2,3.1,2c0.7,0.8,1.1,1.8,1.4,3.1c0.1,0.8,0.2,2.1,0.2,4.1v6c0,4.2,0.1,6.8,0.3,7.9c0.2,1.1,0.6,2.2,1.1,3.2h-4.7
				C588.2,193.6,587.9,192.5,587.7,191.2z M587.4,181.2c-1.6,0.7-4.1,1.2-7.3,1.7c-1.8,0.3-3.1,0.6-3.9,0.9
				c-0.8,0.3-1.4,0.8-1.8,1.5c-0.4,0.6-0.6,1.3-0.6,2.1c0,1.2,0.5,2.2,1.4,3c0.9,0.8,2.2,1.2,4,1.2c1.7,0,3.3-0.4,4.6-1.1
				c1.3-0.8,2.3-1.8,3-3.1c0.5-1,0.7-2.5,0.7-4.5V181.2z"/>
			<path class="st4" d="M608.6,190.5l0.6,4c-1.3,0.3-2.4,0.4-3.4,0.4c-1.6,0-2.9-0.3-3.8-0.8c-0.9-0.5-1.5-1.2-1.9-2
				c-0.4-0.8-0.5-2.6-0.5-5.3v-15.2h-3.3v-3.5h3.3v-6.5l4.5-2.7v9.2h4.5v3.5h-4.5V187c0,1.3,0.1,2.1,0.2,2.5
				c0.2,0.4,0.4,0.7,0.8,0.9c0.4,0.2,0.9,0.3,1.5,0.3C607.1,190.7,607.8,190.6,608.6,190.5z"/>
			<path class="st4" d="M613,163.2V158h4.5v5.2H613z M613,194.5v-26.4h4.5v26.4H613z"/>
			<path class="st4" d="M622.7,181.3c0-4.9,1.4-8.5,4.1-10.9c2.3-2,5-2.9,8.3-2.9c3.6,0,6.6,1.2,8.9,3.6c2.3,2.4,3.5,5.7,3.5,9.9
				c0,3.4-0.5,6.1-1.5,8c-1,2-2.5,3.5-4.5,4.5c-2,1.1-4.1,1.6-6.4,1.6c-3.7,0-6.7-1.2-9-3.6C623.8,189.2,622.7,185.7,622.7,181.3z
				 M627.3,181.3c0,3.4,0.7,5.9,2.2,7.6s3.3,2.5,5.6,2.5c2.2,0,4.1-0.8,5.6-2.5c1.5-1.7,2.2-4.3,2.2-7.7c0-3.3-0.7-5.7-2.2-7.4
				c-1.5-1.7-3.3-2.5-5.5-2.5c-2.2,0-4.1,0.8-5.6,2.5S627.3,177.9,627.3,181.3z"/>
			<path class="st4" d="M652.7,194.5v-26.4h4v3.8c1.9-2.9,4.7-4.4,8.4-4.4c1.6,0,3.1,0.3,4.4,0.9c1.3,0.6,2.3,1.3,3,2.3
				c0.7,0.9,1.1,2,1.4,3.3c0.2,0.8,0.2,2.3,0.2,4.4v16.3h-4.5v-16.1c0-1.8-0.2-3.2-0.5-4.1c-0.3-0.9-1-1.6-1.9-2.2
				c-0.9-0.5-1.9-0.8-3.1-0.8c-1.9,0-3.6,0.6-4.9,1.8c-1.4,1.2-2.1,3.5-2.1,6.9v14.4H652.7z"/>
			<path class="st4" d="M681.7,194.5V158h26.4v4.3h-21.6v11.2h20.2v4.3h-20.2v12.4H709v4.3H681.7z"/>
			<path class="st4" d="M739.6,158h4.8v21.1c0,3.7-0.4,6.6-1.2,8.7s-2.3,3.9-4.5,5.3c-2.2,1.4-5,2-8.5,2c-3.4,0-6.2-0.6-8.4-1.8
				s-3.7-2.9-4.7-5.1c-0.9-2.2-1.4-5.3-1.4-9.2V158h4.8v21.1c0,3.2,0.3,5.5,0.9,7c0.6,1.5,1.6,2.7,3,3.5c1.4,0.8,3.2,1.2,5.3,1.2
				c3.6,0,6.1-0.8,7.6-2.4c1.5-1.6,2.3-4.7,2.3-9.3V158z"/>
		</g>
	</g>
</g>
</svg>
